HIERARCHY
ROOT hip
{
  OFFSET 0 0 0
  CHANNELS 6 Xposition Yposition Zposition Zrotation Yrotation Xrotation
  JOINT abdomen
  {
    OFFSET 0 20.6881 -0.73152
    CHANNELS 3 Zrotation Xrotation Yrotation
    JOINT chest
    {
      OFFSET 0 11.7043 -0.48768
      CHANNELS 3 Zrotation Xrotation Yrotation
      JOINT neck
      {
        OFFSET 0 22.1894 -2.19456
        CHANNELS 3 Zrotation Xrotation Yrotation
        JOINT head
        {
          OFFSET -0.24384 7.07133 1.2192
          CHANNELS 3 Zrotation Xrotation Yrotation
          JOINT leftEye
          {
            OFFSET 4.14528 8.04674 8.04672
            CHANNELS 3 Zrotation Xrotation Yrotation
            End Site
            {
              OFFSET 1 0 0
            }
          }
          JOINT rightEye
          {
            OFFSET -3.6576 8.04674 8.04672
            CHANNELS 3 Zrotation Xrotation Yrotation
            End Site
            {
              OFFSET 1 0 0
            }
          }
        }
      }
      JOINT rCollar
      {
        OFFSET -2.68224 19.2634 -4.8768
        CHANNELS 3 Zrotation Xrotation Yrotation
        JOINT rShldr
        {
          OFFSET -8.77824 -1.95073 1.46304
          CHANNELS 3 Zrotation Xrotation Yrotation
          JOINT rForeArm
          {
            OFFSET -28.1742 -1.7115 0.48768
            CHANNELS 3 Zrotation Xrotation Yrotation
            JOINT rHand
            {
              OFFSET -22.5879 0.773209 7.07136
              CHANNELS 3 Zrotation Xrotation Yrotation
              JOINT rThumb1
              {
                OFFSET -1.2192 -0.487915 3.41376
                CHANNELS 3 Zrotation Xrotation Yrotation
                JOINT rThumb2
                {
                  OFFSET -3.37035 -0.52449 3.41376
                  CHANNELS 3 Zrotation Xrotation Yrotation
                  End Site
                  {
                    OFFSET -1.78271 -1.18214 1.43049
                  }
                }
              }
              JOINT rIndex1
              {
                OFFSET -7.75947 0.938293 5.60832
                CHANNELS 3 Zrotation Xrotation Yrotation
                JOINT rIndex2
                {
                  OFFSET -2.54057 -0.884171 1.56538
                  CHANNELS 3 Zrotation Xrotation Yrotation
                  End Site
                  {
                    OFFSET -1.62519 -0.234802 1.16502
                  }
                }
              }
              JOINT rMid1
              {
                OFFSET -8.24714 1.18213 3.41376
                CHANNELS 3 Zrotation Xrotation Yrotation
                JOINT rMid2
                {
                  OFFSET -3.10165 -0.590103 1.0647
                  CHANNELS 3 Zrotation Xrotation Yrotation
                  End Site
                  {
                    OFFSET -2.48547 -0.328903 0.83742
                  }
                }
              }
              JOINT rRing1
              {
                OFFSET -8.82822 0.546677 1.51678
                CHANNELS 3 Zrotation Xrotation Yrotation
                JOINT rRing2
                {
                  OFFSET -2.60934 -0.819778 -0.0198488
                  CHANNELS 3 Zrotation Xrotation Yrotation
                  End Site
                  {
                    OFFSET -2.33842 -0.294052 0.168128
                  }
                }
              }
              JOINT rPinky1
              {
                OFFSET -8.27202 -0.0477905 -0.4584
                CHANNELS 3 Zrotation Xrotation Yrotation
                JOINT rPinky2
                {
                  OFFSET -1.82734 -0.647385 -0.700984
                  CHANNELS 3 Zrotation Xrotation Yrotation
                  End Site
                  {
                    OFFSET -1.69225 -0.51767 -0.607171
                  }
                }
              }
            }
          }
        }
      }
      JOINT lCollar
      {
        OFFSET 2.68224 19.2634 -4.8768
        CHANNELS 3 Zrotation Xrotation Yrotation
        JOINT lShldr
        {
          OFFSET 8.77824 -1.95073 1.46304
          CHANNELS 3 Zrotation Xrotation Yrotation
          JOINT lForeArm
          {
            OFFSET 28.1742 -1.7115 0.48768
            CHANNELS 3 Zrotation Xrotation Yrotation
            JOINT lHand
            {
              OFFSET 22.5879 0.773209 7.07136
              CHANNELS 3 Zrotation Xrotation Yrotation
              JOINT lThumb1
              {
                OFFSET 1.2192 -0.487915 3.41376
                CHANNELS 3 Zrotation Xrotation Yrotation
                JOINT lThumb2
                {
                  OFFSET 3.37035 -0.52449 3.41376
                  CHANNELS 3 Zrotation Xrotation Yrotation
                  End Site
                  {
                    OFFSET 1.78271 -1.18214 1.43049
                  }
                }
              }
              JOINT lIndex1
              {
                OFFSET 7.75947 0.938293 5.60832
                CHANNELS 3 Zrotation Xrotation Yrotation
                JOINT lIndex2
                {
                  OFFSET 2.54057 -0.884171 1.56538
                  CHANNELS 3 Zrotation Xrotation Yrotation
                  End Site
                  {
                    OFFSET 1.62519 -0.234802 1.16502
                  }
                }
              }
              JOINT lMid1
              {
                OFFSET 8.24714 1.18213 3.41376
                CHANNELS 3 Zrotation Xrotation Yrotation
                JOINT lMid2
                {
                  OFFSET 3.10165 -0.590103 1.0647
                  CHANNELS 3 Zrotation Xrotation Yrotation
                  End Site
                  {
                    OFFSET 2.48547 -0.328903 0.83742
                  }
                }
              }
              JOINT lRing1
              {
                OFFSET 8.82822 0.546677 1.51678
                CHANNELS 3 Zrotation Xrotation Yrotation
                JOINT lRing2
                {
                  OFFSET 2.60934 -0.819778 -0.0198488
                  CHANNELS 3 Zrotation Xrotation Yrotation
                  End Site
                  {
                    OFFSET 2.33842 -0.294052 0.168128
                  }
                }
              }
              JOINT lPinky1
              {
                OFFSET 8.27202 -0.0477905 -0.4584
                CHANNELS 3 Zrotation Xrotation Yrotation
                JOINT lPinky2
                {
                  OFFSET 1.82734 -0.647385 -0.700984
                  CHANNELS 3 Zrotation Xrotation Yrotation
                  End Site
                  {
                    OFFSET 1.69225 -0.51767 -0.607171
                  }
                }
              }
            }
          }
        }
      }
    }
  }
  JOINT rButtock
  {
    OFFSET -8.77824 4.35084 1.2192
    CHANNELS 3 Zrotation Xrotation Yrotation
    JOINT rThigh
    {
      OFFSET 0 -1.70687 -2.19456
      CHANNELS 3 Zrotation Xrotation Yrotation
      JOINT rShin
      {
        OFFSET 0 -36.8199 0.73152
        CHANNELS 3 Zrotation Xrotation Yrotation
        JOINT rFoot
        {
          OFFSET 0.73152 -45.1104 -5.12064
          CHANNELS 3 Zrotation Xrotation Yrotation
          End Site
          {
            OFFSET -1.1221 -3.69964 12.103
          }
        }
      }
    }
  }
  JOINT lButtock
  {
    OFFSET 8.77824 4.35084 1.2192
    CHANNELS 3 Zrotation Xrotation Yrotation
    JOINT lThigh
    {
      OFFSET 0 -1.70687 -2.19456
      CHANNELS 3 Zrotation Xrotation Yrotation
      JOINT lShin
      {
        OFFSET 0 -36.8199 0.73152
        CHANNELS 3 Zrotation Xrotation Yrotation
        JOINT lFoot
        {
          OFFSET -0.73152 -45.1104 -5.12064
          CHANNELS 3 Zrotation Xrotation Yrotation
          End Site
          {
            OFFSET 1.1221 -3.69964 12.103
          }
        }
      }
    }
  }
}
MOTION
Frames:	4
Frame Time:	0.03333
0.04656999930739403 55.571998596191406 -0.1940000057220459 12.562500089406967 35.88379919528961 9.658800289034843 -17.932100147008896 15.629699975252151 2.55474004894495 5.543059855699539 -9.603479728102684 0.5829529836773872 -9.72779005765915 17.31460064649582 -11.953599750995636 8.336909785866737 -23.642999231815338 -21.755400002002716 0.0 0.0 0.0 0.0 0.0 0.0 0.0 0.0 0.0 34.649500250816345 17.705599665641785 31.41280084848404 -16.813499629497528 -9.464759901165962 31.411400735378265 -0.29535400215536356 15.283099561929703 2.200880069285631 4.739248993246292e-09 5.04684294355684e-09 2.665387910383288e-09 8.220304437145387e-09 9.00399754755199e-09 4.5429260353557765e-09 4.739248993246292e-09 5.04684294355684e-09 2.665387910383288e-09 7.7309102565050125 5.474880114197731 0.41731400415301323 4.739248993246292e-09 5.04684294355684e-09 2.665387910383288e-09 2.905540131032467 0.9651830233633518 0.102901995414868 4.739248993246292e-09 5.04684294355684e-09 2.665387910383288e-09 10.27859978377819 0.7318009994924068 0.025912300043273717 4.739248993246292e-09 5.04684294355684e-09 2.665387910383288e-09 2.221670038998127 -0.733487019315362 -0.2089200052432716 0.0 0.0 0.0 -113.55300307273865 46.14860236644745 52.97179877758026 27.831601202487946 -41.251401007175446 -86.1702024936676 4.510000012814999 -50.02349853515625 9.649649932980537 3.785451951898722e-09 2.844444679794833e-09 5.678657544194721e-10 6.505516125798749e-09 4.6631498662463855e-09 1.1152678780490533e-09 3.785451951898722e-09 2.844444679794833e-09 5.678657544194721e-10 -7.7309102565050125 5.474880114197731 -0.41731400415301323 3.785451951898722e-09 2.844444679794833e-09 5.678657544194721e-10 -2.905540131032467 0.9651830233633518 -0.102901995414868 3.785451951898722e-09 2.844444679794833e-09 5.678657544194721e-10 -10.27859978377819 0.7318009994924068 -0.025912300043273717 3.785451951898722e-09 2.844444679794833e-09 5.678657544194721e-10 -2.221670038998127 -0.733487019315362 0.2089200052432716 0.0 0.0 0.0 -66.35179996490479 -52.59399890899658 -52.661601305007935 -2.0645799301564693 70.58890163898468 2.76059003546834 1.923920027911663 -3.893910013139248 7.977069988846779 0.0 0.0 0.0 14.627999514341354 6.488140225410461 0.10006199707277119 -0.13728099991567433 32.4110010266304 -2.6575100608170033 4.0241701528429985 -12.644500583410263 28.833001255989075
0.053809999488294125 55.78839874267578 -0.25300000607967377 12.744500041007996 35.77680051326752 9.731700047850609 -18.420400321483612 14.526599943637848 3.0855901166796684 5.674620196223259 -9.216210320591927 0.7404930330812931 -9.895949810743332 17.31160059571266 -12.0961993932724 8.845429793000221 -22.833200097084045 -21.94780021905899 0.0 0.0 0.0 0.0 0.0 0.0 0.0 0.0 0.0 35.987600684165955 17.403800189495087 30.899900794029236 -16.760700345039368 -9.413679912686348 31.295599043369293 -0.30502399429678917 15.524499714374542 2.237410079687834 4.852438451052876e-09 4.522462404565886e-09 2.829096956702415e-09 8.413749696956074e-09 8.090808023553109e-09 4.824300958716776e-09 4.852438451052876e-09 4.522462404565886e-09 2.829096956702415e-09 7.7309102565050125 5.474880114197731 0.41731400415301323 4.852438451052876e-09 4.522462404565886e-09 2.829096956702415e-09 2.905540131032467 0.9651830233633518 0.102901995414868 4.852438451052876e-09 4.522462404565886e-09 2.829096956702415e-09 10.27859978377819 0.7318009994924068 0.025912300043273717 4.852438451052876e-09 4.522462404565886e-09 2.829096956702415e-09 2.221670038998127 -0.733487019315362 -0.2089200052432716 0.0 0.0 0.0 -112.67400026321411 47.2137987613678 51.64530158042908 27.940799295902252 -40.71560025215149 -85.21380186080933 4.196170158684254 -48.79329800605774 9.235939979553223 3.945004323213652e-09 3.2460434340464417e-09 5.525180313270539e-10 6.7904082357017614e-09 5.37681899004383e-09 1.0794565241667442e-09 3.945004323213652e-09 3.2460434340464417e-09 5.525180313270539e-10 -7.7309102565050125 5.474880114197731 -0.41731400415301323 3.945004323213652e-09 3.2460434340464417e-09 5.525180313270539e-10 -2.905540131032467 0.9651830233633518 -0.102901995414868 3.945004323213652e-09 3.2460434340464417e-09 5.525180313270539e-10 -10.27859978377819 0.7318009994924068 -0.025912300043273717 3.945004323213652e-09 3.2460434340464417e-09 5.525180313270539e-10 -2.221670038998127 -0.733487019315362 0.2089200052432716 0.0 0.0 0.0 -65.47699749469757 -52.28040039539337 -51.412898898124695 -2.0185099728405476 70.26169896125793 2.704829927533865 2.1866499446332455 -4.192149862647057 9.166020154953003 0.0 0.0 0.0 14.080300480127335 6.458360329270363 -0.1283529947977513 -0.13535899808630347 32.303200364112854 -2.6170499436557293 4.0917400270700455 -12.613900601863861 29.09740000963211
0.036360000260174274 55.96770095825195 -0.22100000455975533 13.140300214290619 35.6753996014595 9.695700109004974 -19.269900172948837 14.16520044207573 3.3736898750066757 6.007739827036858 -9.19990986585617 0.8242790400981903 -9.98646967113018 17.15999945998192 -12.118400037288666 9.025849923491478 -22.542400360107422 -21.953100264072418 0.0 0.0 0.0 0.0 0.0 0.0 0.0 0.0 0.0 36.79389953613281 17.41990014910698 30.969300270080566 -16.510899513959885 -9.17168028652668 30.75649917125702 -0.31966799637302756 15.881900042295456 2.2916399873793125 4.210072290788958e-09 2.9262992029543966e-09 2.7677060643327422e-09 7.305516191991046e-09 5.3154280976741575e-09 4.732214620162267e-09 4.210072290788958e-09 2.9262992029543966e-09 2.7677060643327422e-09 7.7309102565050125 5.474880114197731 0.41731400415301323 4.210072290788958e-09 2.9262992029543966e-09 2.7677060643327422e-09 2.905540131032467 0.9651830233633518 0.102901995414868 4.210072290788958e-09 2.9262992029543966e-09 2.7677060643327422e-09 10.27859978377819 0.7318009994924068 0.025912300043273717 4.210072290788958e-09 2.9262992029543966e-09 2.7677060643327422e-09 2.221670038998127 -0.733487019315362 -0.2089200052432716 0.0 0.0 0.0 -112.30900526046753 47.84350097179413 50.907002091407776 27.983199656009674 -40.49289911985397 -84.81659889221191 4.592210054397583 -50.34659743309021 9.758670330047607 3.6294167671258037e-09 2.98001623377786e-09 4.501998773775995e-10 6.242046879378904e-09 4.895923666481394e-09 9.00399754755199e-10 3.6294167671258037e-09 2.98001623377786e-09 4.501998773775995e-10 -7.7309102565050125 5.474880114197731 -0.41731400415301323 3.6294167671258037e-09 2.98001623377786e-09 4.501998773775995e-10 -2.905540131032467 0.9651830233633518 -0.102901995414868 3.6294167671258037e-09 2.98001623377786e-09 4.501998773775995e-10 -10.27859978377819 0.7318009994924068 -0.025912300043273717 3.6294167671258037e-09 2.98001623377786e-09 4.501998773775995e-10 -2.221670038998127 -0.733487019315362 0.2089200052432716 0.0 0.0 0.0 -64.09560084342957 -51.94039821624756 -49.2432975769043 -1.8798300437629223 69.31649923324585 2.5816000252962112 2.3016300424933434 -4.291689991950989 9.597340151667595 0.0 0.0 0.0 13.636099845170975 6.9242700934410095 -0.12419899692758918 -0.13788400450721383 31.83639943599701 -2.5749999471008778 3.998280130326748 -12.489100098609924 29.03349906206131
-0.008840001188218594 56.163299560546875 -0.1770000047981739 13.452699780464172 35.68900108337402 9.544499963521957 -20.062099993228912 14.090600162744522 3.4659799933433533 6.331809684634209 -9.301330223679543 0.8510360028594732 -10.029999911785126 16.94660022854805 -12.109300643205643 9.086339771747589 -22.68689900636673 -21.903699338436127 0.0 0.0 0.0 0.0 0.0 0.0 0.0 0.0 0.0 37.299300134181976 17.505100518465042 31.343398690223694 -16.193000078201294 -8.867889940738678 30.08130133152008 -0.337872002273798 16.311899721622467 2.3571700416505337 3.143085791634803e-09 1.1741008165699895e-09 2.404476617812179e-09 5.46123146705213e-09 2.248441433039261e-09 4.113189788768068e-09 3.143085791634803e-09 1.1741008165699895e-09 2.404476617812179e-09 7.7309102565050125 5.474880114197731 0.41731400415301323 3.143085791634803e-09 1.1741008165699895e-09 2.404476617812179e-09 2.905540131032467 0.9651830233633518 0.102901995414868 3.143085791634803e-09 1.1741008165699895e-09 2.404476617812179e-09 10.27859978377819 0.7318009994924068 0.025912300043273717 3.143085791634803e-09 1.1741008165699895e-09 2.404476617812179e-09 2.221670038998127 -0.733487019315362 -0.2089200052432716 0.0 0.0 0.0 -112.20999956130981 48.22419762611389 50.51479876041412 27.994899451732635 -40.44149994850159 -84.71640229225159 5.038919895887375 -51.912299394607544 10.330000296235085 2.8412472374839126e-09 2.1819346329721157e-09 3.4788172342814505e-10 4.876739012615872e-09 3.5223024497099686e-09 7.16227077646181e-10 2.8412472374839126e-09 2.1819346329721157e-09 3.4788172342814505e-10 -7.7309102565050125 5.474880114197731 -0.41731400415301323 2.8412472374839126e-09 2.1819346329721157e-09 3.4788172342814505e-10 -2.905540131032467 0.9651830233633518 -0.102901995414868 2.8412472374839126e-09 2.1819346329721157e-09 3.4788172342814505e-10 -10.27859978377819 0.7318009994924068 -0.025912300043273717 2.8412472374839126e-09 2.1819346329721157e-09 3.4788172342814505e-10 -2.221670038998127 -0.733487019315362 0.2089200052432716 0.0 0.0 0.0 -62.75789737701416 -51.63770020008087 -47.16760039329529 -1.7413499392569065 68.31810057163239 2.472220044583082 2.281019948422909 -4.184470027685165 9.48150023818016 0.0 0.0 0.0 13.357599377632141 7.512310221791267 -0.027879700355697423 -0.14182499726302922 31.20329886674881 -2.533589992672205 3.8222400471568108 -12.277900278568268 28.8374000787735
